mtllib stg400_MotFan_o1_15.mtl

v -4095.522705 1994.833618 -4386.635254
v -4098.969238 1994.833618 -4396.927734
v -4097.246094 1997.818359 -4386.635254
v -4097.246094 1991.848877 -4386.635254
v -4097.602539 1992.466187 -4385.296387
v -4100.335938 1992.466187 -4385.296387
v -4098.969238 1994.833618 -4383.314941
v -4101.703125 1994.833618 -4385.296387
v -4100.692383 1991.848877 -4386.635254
v -4098.969238 1994.833618 -4396.927734
v -4102.415527 1994.833618 -4386.635254
v -4100.335938 1997.201050 -4385.296387
v -4098.969238 1994.833618 -4383.314941
v -4097.602539 1997.201050 -4385.296387
v -4100.692383 1997.818359 -4386.635254
v -4098.969238 1994.833618 -4396.927734
v -4097.246094 1997.818359 -4386.635254
v -4096.235352 1994.833618 -4385.296387
v -4098.969238 1994.833618 -4383.314941
v -4097.602539 1997.201050 -4385.296387

vt 0.766418 1.437378
vt 0.764709 1.851013
vt 0.919495 1.437378
vt 0.613403 1.437378
vt 0.613403 1.355225
vt 0.764038 1.355225
vt 0.763611 1.248840
vt 0.917053 1.355225
vt 0.764038 1.437378
vt 0.765747 1.851013
vt 0.917053 1.437378
vt 0.768921 1.355225
vt 0.769348 1.248840
vt 0.615845 1.355225
vt 0.768921 1.437378
vt 0.767212 1.851013
vt 0.615845 1.437378
vt 0.766418 1.355225
vt 0.766846 1.248840
vt 0.919495 1.355225

vn 7924809334889683200000000000000000.000000 7840161470883427500000000000000000.000000 -1.#QNAN0
vn 7924809334889683200000000000000000.000000 7840161470883427500000000000000000.000000 -1.#QNAN0
vn 7924809334889683200000000000000000.000000 7840161470883427500000000000000000.000000 -1.#QNAN0
vn 7900660838543343300000000000000000.000000 0.000000 0.000000
vn 7900660838543343300000000000000000.000000 0.000000 0.000000
vn 7900660838543343300000000000000000.000000 0.000000 0.000000
vn 7900660838543343300000000000000000.000000 0.000000 0.000000
vn 7900660838543343300000000000000000.000000 0.000000 0.000000
vn 7924809334889683200000000000000000.000000 7840161470883427500000000000000000.000000 -1.#QNAN0
vn 7924809334889683200000000000000000.000000 7840161470883427500000000000000000.000000 -1.#QNAN0
vn 7900660838543343300000000000000000.000000 0.000000 0.000000
vn 7900660838543343300000000000000000.000000 0.000000 0.000000
vn 7900660838543343300000000000000000.000000 0.000000 0.000000
vn 7900660838543343300000000000000000.000000 0.000000 0.000000
vn 7924809334889683200000000000000000.000000 7840161470883427500000000000000000.000000 -1.#QNAN0
vn 7924809334889683200000000000000000.000000 7840161470883427500000000000000000.000000 -1.#QNAN0
vn 7900660838543343300000000000000000.000000 0.000000 0.000000
vn 7924809334889683200000000000000000.000000 7840161470883427500000000000000000.000000 -1.#QNAN0
vn 7900660838543343300000000000000000.000000 0.000000 0.000000
vn 7924809334889683200000000000000000.000000 7840161470883427500000000000000000.000000 -1.#QNAN0

g polygon0
s 1
usemtl mat2
f 1/1/1 2/2/2 3/3/3
f 1/1/1 4/4/4 2/2/2
f 5/5/5 4/4/4 1/1/1
f 5/5/5 6/6/6 4/4/4
f 7/7/7 6/6/6 5/5/5
f 7/7/7 8/8/8 6/6/6
f 9/9/9 10/10/10 4/4/4
f 9/9/9 11/11/11 10/10/10
f 8/8/8 11/11/11 9/9/9
f 8/8/8 12/12/12 11/11/11
f 13/13/13 12/12/12 8/8/8
f 13/13/13 14/14/14 12/12/12
f 15/15/15 16/16/16 11/11/11
f 15/15/15 17/17/17 16/16/16
f 14/14/14 17/17/17 15/15/15
f 18/18/18 1/1/1 3/3/3
f 18/18/18 5/5/5 1/1/1
f 19/19/19 5/5/5 18/18/18
f 6/6/6 9/9/9 4/4/4
f 6/6/6 8/8/8 9/9/9
f 12/12/12 15/15/15 11/11/11
f 12/12/12 14/14/14 15/15/15
f 20/20/20 18/18/18 3/3/3
f 20/20/20 19/19/19 18/18/18

v -4092.482422 1991.571411 -4384.538086
v -4094.004150 1995.509399 -4385.878418
v -4094.141357 1993.474609 -4385.177734
v -4091.791016 1992.892456 -4385.014160
v -4088.984863 1990.456543 -4383.577148
v -4088.957031 1991.796875 -4384.209473
v -4084.359863 1990.523682 -4382.512695
v -4082.236328 1991.904541 -4382.664551
v -4086.628906 1987.559448 -4382.642090
v -4104.903320 1990.909058 -4384.538086
v -4100.731934 1990.258057 -4385.878418
v -4102.425293 1991.394409 -4385.177734
v -4104.104980 1989.650024 -4385.014160
v -4107.617676 1988.437622 -4383.577148
v -4106.470703 1987.743408 -4384.209473
v -4109.872070 1984.398804 -4382.512695
v -4109.737793 1981.869141 -4382.664551
v -4111.304199 1987.845947 -4382.642090
v -4099.266602 2001.997070 -4384.538086
v -4101.916016 1998.710205 -4385.878418
v -4100.084961 1999.608643 -4385.177734
v -4100.755859 2001.935181 -4385.014160
v -4100.049805 2005.583618 -4383.577148
v -4101.224121 2004.937378 -4384.209473
v -4102.419922 2009.555176 -4382.512695
v -4104.677734 2010.703979 -4382.664551
v -4098.718750 2009.072144 -4382.642090
v -4096.256348 1986.322510 -4385.169922
v -4099.426270 1988.198975 -4385.697266
v -4102.046875 1987.797607 -4386.711426
v -4095.888428 1987.467529 -4384.778320
v -4092.288574 1984.951416 -4384.065430
v -4092.179688 1985.989990 -4383.720215
v -4089.252197 1985.881470 -4383.025879
v -4107.562012 1996.802002 -4385.169922
v -4104.352051 1998.608887 -4385.697266
v -4103.389160 2001.079224 -4386.711426
v -4106.754395 1995.910767 -4384.778320
v -4110.733398 1994.051392 -4384.065430
v -4109.888184 1993.437744 -4383.720215
v -4111.445801 1990.956665 -4383.025879
v -4092.833740 2001.353149 -4385.169922
v -4092.873779 1997.669800 -4385.697266
v -4091.215820 1995.600830 -4386.711426
v -4094.009277 2001.099365 -4384.778320
v -4093.630127 2005.474854 -4384.065430
v -4094.583984 2005.049927 -4383.720215
v -4095.953857 2007.639404 -4383.025879
v -4092.179688 1985.989990 -4383.720215
v -4092.482422 1991.571411 -4384.538086
v -4095.888428 1987.467529 -4384.778320
v -4088.984863 1990.456543 -4383.577148
v -4089.252197 1985.881470 -4383.025879
v -4086.628906 1987.559448 -4382.642090
v -4095.401367 1991.241943 -4385.171387
v -4102.046875 1987.797607 -4386.711426
v -4099.426270 1988.198975 -4385.697266
v -4096.212891 1991.684082 -4385.878418
v -4094.141357 1993.474609 -4385.177734
v -4094.004150 1995.509399 -4385.878418
v -4088.927734 1984.958008 -4383.286621
v -4086.083252 1986.866333 -4382.882324
v -4109.888184 1993.437744 -4383.720215
v -4104.903320 1990.909058 -4384.538086
v -4106.754395 1995.910767 -4384.778320
v -4107.617676 1988.437622 -4383.577148
v -4111.445801 1990.956665 -4383.025879
v -4111.304199 1987.845947 -4382.642090
v -4103.729004 1993.601807 -4385.171387
v -4103.389160 2001.079224 -4386.711426
v -4104.352051 1998.608887 -4385.697266
v -4102.940430 1994.083374 -4385.878418
v -4102.425293 1991.394409 -4385.177734
v -4100.731934 1990.258057 -4385.878418
v -4112.408203 1991.137451 -4383.286621
v -4112.177734 1987.719971 -4382.882324
v -4094.583984 2005.049927 -4383.720215
v -4099.266602 2001.997070 -4384.538086
v -4094.009277 2001.099365 -4384.778320
v -4100.049805 2005.583618 -4383.577148
v -4095.953857 2007.639404 -4383.025879
v -4098.718750 2009.072144 -4382.642090
v -4097.521484 1999.633911 -4385.171387
v -4091.215820 1995.600830 -4386.711426
v -4092.873779 1997.669800 -4385.697266
v -4097.498535 1998.710205 -4385.878418
v -4100.084961 1999.608643 -4385.177734
v -4101.916016 1998.710205 -4385.878418
v -4095.316406 2008.382324 -4383.286621
v -4098.391113 2009.891357 -4382.882324
v -4095.401367 1991.241943 -4385.171387
v -4094.141357 1993.474609 -4385.177734
v -4099.426270 1988.198975 -4385.697266
v -4103.729004 1993.601807 -4385.171387
v -4102.425293 1991.394409 -4385.177734
v -4104.352051 1998.608887 -4385.697266
v -4097.521484 1999.633911 -4385.171387
v -4100.084961 1999.608643 -4385.177734
v -4092.873779 1997.669800 -4385.697266
v -4084.359863 1990.523682 -4382.512695
v -4109.872070 1984.398804 -4382.512695
v -4102.419922 2009.555176 -4382.512695

vt 0.890381 0.000244
vt 0.630737 -0.074463
vt 0.672485 0.000244
vt 0.841919 -0.074463
vt 1.067505 0.000244
vt 1.113770 -0.074463
vt 1.414429 0.000244
vt 1.578857 -0.074463
vt 1.140137 0.000244
vt 0.890381 0.000244
vt 0.630737 -0.074463
vt 0.672485 0.000244
vt 0.841919 -0.074463
vt 1.067505 0.000244
vt 1.113770 -0.074463
vt 1.414429 0.000244
vt 1.578857 -0.074463
vt 1.140137 0.000244
vt 0.890381 0.000244
vt 0.630737 -0.074463
vt 0.672485 0.000244
vt 0.841919 -0.074463
vt 1.067505 0.000244
vt 1.113770 -0.074463
vt 1.414429 0.000244
vt 1.578857 -0.074463
vt 1.140137 0.000244
vt 0.399658 -0.074463
vt 0.098022 0.000244
vt 0.010010 -0.074463
vt 0.424927 0.000244
vt 0.694214 -0.074463
vt 0.688843 0.000244
vt 0.925659 0.000244
vt 0.399658 -0.074463
vt 0.098022 0.000244
vt 0.010010 -0.074463
vt 0.424927 0.000244
vt 0.694214 -0.074463
vt 0.688843 0.000244
vt 0.925659 0.000244
vt 0.399658 -0.074463
vt 0.098022 0.000244
vt 0.010010 -0.074463
vt 0.424927 0.000244
vt 0.694214 -0.074463
vt 0.688843 0.000244
vt 0.925659 0.000244
vt -0.059937 0.659424
vt -0.000244 0.924072
vt -0.195068 0.659424
vt 0.206299 0.924072
vt 0.095581 0.659424
vt 0.294067 0.659424
vt 0.356079 -0.000366
vt 0.010010 -0.075073
vt 0.111084 -0.000366
vt 0.354736 -0.075073
vt 0.480713 -0.000366
vt 0.597168 -0.075073
vt 0.917725 -0.074463
vt 1.148560 -0.074463
vt -0.059937 0.659424
vt -0.000244 0.924072
vt -0.195068 0.659424
vt 0.206299 0.924072
vt 0.095581 0.659424
vt 0.294067 0.659424
vt 0.356079 -0.000366
vt 0.010010 -0.075073
vt 0.111084 -0.000366
vt 0.354736 -0.075073
vt 0.480713 -0.000366
vt 0.597168 -0.075073
vt 0.917725 -0.074463
vt 1.148560 -0.074463
vt -0.059937 0.659424
vt -0.000244 0.924072
vt -0.195068 0.659424
vt 0.206299 0.924072
vt 0.095581 0.659424
vt 0.294067 0.659424
vt 0.356079 -0.000366
vt 0.010010 -0.075073
vt 0.111084 -0.000366
vt 0.354736 -0.075073
vt 0.480713 -0.000366
vt 0.597168 -0.075073
vt 0.917725 -0.074463
vt 1.148560 -0.074463
vt -0.347778 0.822266
vt -0.346680 0.924072
vt -0.379761 0.659424
vt -0.347778 0.822266
vt -0.346680 0.924072
vt -0.379761 0.659424
vt -0.347778 0.822266
vt -0.346680 0.924072
vt -0.379761 0.659424
vt 0.414185 0.660156
vt 0.414185 0.660156
vt 0.414185 0.660156

vn -0.158632 0.230593 0.960033
vn -0.229979 0.331906 0.914849
vn -0.273196 0.288516 0.917672
vn -0.040529 0.362134 0.931245
vn -0.199274 0.263176 0.943943
vn -0.141965 0.424797 0.894088
vn -0.034057 0.111205 0.993214
vn -0.069459 0.213627 0.974443
vn -0.032592 -0.072935 0.996804
vn 0.278996 0.022095 0.960038
vn 0.402406 0.033203 0.914859
vn 0.386477 0.092286 0.917670
vn 0.333876 -0.145941 0.931251
vn 0.327565 0.041014 0.943938
vn 0.438840 -0.089477 0.894099
vn 0.113281 -0.026123 0.993219
vn 0.219731 -0.046632 0.974445
vn -0.046813 0.064696 0.996806
vn -0.120364 -0.252631 0.960047
vn -0.172424 -0.365113 0.914857
vn -0.113281 -0.380861 0.917667
vn -0.293344 -0.216193 0.931241
vn -0.128231 -0.304190 0.943941
vn -0.296875 -0.335327 0.894104
vn -0.079284 -0.085082 0.993215
vn -0.150270 -0.166994 0.974439
vn 0.079466 0.008240 0.996803
vn -0.309560 -0.222039 0.924592
vn -0.344360 0.052368 0.937376
vn -0.379458 0.100403 0.919745
vn -0.270512 -0.037354 0.961992
vn -0.291929 -0.273313 0.916557
vn -0.269771 -0.094298 0.958296
vn -0.152407 -0.125124 0.980365
vn -0.037536 0.379081 0.924602
vn 0.217530 0.272034 0.937379
vn 0.276677 0.278387 0.919756
vn 0.102907 0.252935 0.961995
vn -0.090759 0.389463 0.916560
vn 0.053222 0.280758 0.958302
vn -0.032166 0.194524 0.980370
vn 0.347095 -0.157038 0.924589
vn 0.126831 -0.324402 0.937378
vn 0.102785 -0.378791 0.919757
vn 0.167606 -0.215580 0.961994
vn 0.382632 -0.116151 0.916571
vn 0.216550 -0.186460 0.958300
vn 0.184515 -0.069399 0.980376
vn -0.269771 -0.094298 0.958296
vn -0.158632 0.230593 0.960033
vn -0.270512 -0.037354 0.961992
vn -0.199274 0.263176 0.943943
vn -0.152407 -0.125124 0.980365
vn -0.032592 -0.072935 0.996804
vn -0.343010 0.236628 0.909038
vn -0.379458 0.100403 0.919745
vn -0.344360 0.052368 0.937376
vn -0.470940 0.397638 0.787464
vn -0.273196 0.288516 0.917672
vn -0.229979 0.331906 0.914849
vn -0.091370 -0.303346 0.948490
vn 0.117985 -0.240669 0.963410
vn 0.053222 0.280758 0.958302
vn 0.278996 0.022095 0.960038
vn 0.102907 0.252935 0.961995
vn 0.327565 0.041014 0.943938
vn -0.032166 0.194524 0.980370
vn -0.046813 0.064696 0.996806
vn 0.376456 0.178707 0.909035
vn 0.276677 0.278387 0.919756
vn 0.217530 0.272034 0.937379
vn 0.579827 0.209043 0.787466
vn 0.386477 0.092286 0.917670
vn 0.402406 0.033203 0.914859
vn -0.216984 0.230778 0.948504
vn -0.267389 0.018188 0.963417
vn 0.216550 -0.186460 0.958300
vn -0.120364 -0.252631 0.960047
vn 0.167606 -0.215580 0.961994
vn -0.128231 -0.304190 0.943941
vn 0.184515 -0.069399 0.980376
vn 0.079466 0.008240 0.996803
vn -0.033447 -0.415341 0.909051
vn 0.102785 -0.378791 0.919757
vn 0.126831 -0.324402 0.937378
vn -0.108884 -0.606675 0.787457
vn -0.113281 -0.380861 0.917667
vn -0.172424 -0.365113 0.914857
vn 0.308355 0.072511 0.948504
vn 0.149480 0.222480 0.963410
vn -0.343010 0.236628 0.909038
vn -0.273196 0.288516 0.917672
vn -0.344360 0.052368 0.937376
vn 0.376456 0.178707 0.909035
vn 0.386477 0.092286 0.917670
vn 0.217530 0.272034 0.937379
vn -0.033447 -0.415341 0.909051
vn -0.113281 -0.380861 0.917667
vn 0.126831 -0.324402 0.937378
vn -0.034057 0.111205 0.993214
vn 0.113281 -0.026123 0.993219
vn -0.079284 -0.085082 0.993215

g polygon1
s 1
usemtl mat1
f 21/21/21 22/22/22 23/23/23
f 21/21/21 24/24/24 22/22/22
f 25/25/25 24/24/24 21/21/21
f 25/25/25 26/26/26 24/24/24
f 27/27/27 26/26/26 25/25/25
f 27/27/27 28/28/28 26/26/26
f 29/29/29 28/28/28 27/27/27
f 30/30/30 31/31/31 32/32/32
f 30/30/30 33/33/33 31/31/31
f 34/34/34 33/33/33 30/30/30
f 34/34/34 35/35/35 33/33/33
f 36/36/36 35/35/35 34/34/34
f 36/36/36 37/37/37 35/35/35
f 38/38/38 37/37/37 36/36/36
f 39/39/39 40/40/40 41/41/41
f 39/39/39 42/42/42 40/40/40
f 43/43/43 42/42/42 39/39/39
f 43/43/43 44/44/44 42/42/42
f 45/45/45 44/44/44 43/43/43
f 45/45/45 46/46/46 44/44/44
f 47/47/47 46/46/46 45/45/45
f 48/48/48 49/49/49 50/50/50
f 48/48/48 51/51/51 49/49/49
f 52/52/52 51/51/51 48/48/48
f 52/52/52 53/53/53 51/51/51
f 54/54/54 53/53/53 52/52/52
f 55/55/55 56/56/56 57/57/57
f 55/55/55 58/58/58 56/56/56
f 59/59/59 58/58/58 55/55/55
f 59/59/59 60/60/60 58/58/58
f 61/61/61 60/60/60 59/59/59
f 62/62/62 63/63/63 64/64/64
f 62/62/62 65/65/65 63/63/63
f 66/66/66 65/65/65 62/62/62
f 66/66/66 67/67/67 65/65/65
f 68/68/68 67/67/67 66/66/66
f 69/69/69 70/70/70 71/71/71
f 69/69/69 72/72/72 70/70/70
f 73/73/73 72/72/72 69/69/69
f 73/73/73 74/74/74 72/72/72
f 75/75/75 76/76/76 77/77/77
f 75/75/75 78/78/78 76/76/76
f 79/79/79 78/78/78 75/75/75
f 79/79/79 80/80/80 78/78/78
f 81/81/81 54/54/54 52/52/52
f 81/81/81 29/29/29 54/54/54
f 82/82/82 29/29/29 81/81/81
f 82/82/82 28/28/28 29/29/29
f 83/83/83 84/84/84 85/85/85
f 83/83/83 86/86/86 84/84/84
f 87/87/87 86/86/86 83/83/83
f 87/87/87 88/88/88 86/86/86
f 89/89/89 90/90/90 91/91/91
f 89/89/89 92/92/92 90/90/90
f 93/93/93 92/92/92 89/89/89
f 93/93/93 94/94/94 92/92/92
f 95/95/95 61/61/61 59/59/59
f 95/95/95 38/38/38 61/61/61
f 96/96/96 38/38/38 95/95/95
f 96/96/96 37/37/37 38/38/38
f 97/97/97 98/98/98 99/99/99
f 97/97/97 100/100/100 98/98/98
f 101/101/101 100/100/100 97/97/97
f 101/101/101 102/102/102 100/100/100
f 103/103/103 104/104/104 105/105/105
f 103/103/103 106/106/106 104/104/104
f 107/107/107 106/106/106 103/103/103
f 107/107/107 108/108/108 106/106/106
f 109/109/109 68/68/68 66/66/66
f 109/109/109 47/47/47 68/68/68
f 110/110/110 47/47/47 109/109/109
f 110/110/110 46/46/46 47/47/47
f 111/111/111 70/70/70 112/112/112
f 111/111/111 71/71/71 70/70/70
f 113/113/113 71/71/71 111/111/111
f 114/114/114 84/84/84 115/115/115
f 114/114/114 85/85/85 84/84/84
f 116/116/116 85/85/85 114/114/114
f 117/117/117 98/98/98 118/118/118
f 117/117/117 99/99/99 98/98/98
f 119/119/119 99/99/99 117/117/117
f 120/120/120 72/72/72 74/74/74
f 121/121/121 86/86/86 88/88/88
f 122/122/122 100/100/100 102/102/102

v -4094.894775 1992.599487 -4385.315430
v -4097.139160 1993.530518 -4386.340332
v -4094.970459 1992.278442 -4385.669434
v -4097.063477 1993.851440 -4385.986328
v -4094.649414 1992.834595 -4385.669434
v -4096.817871 1994.086670 -4386.340332
v -4102.806641 1992.484375 -4385.315430
v -4100.878418 1993.962524 -4386.340332
v -4103.046875 1992.710449 -4385.669434
v -4100.638184 1993.736328 -4385.986328
v -4102.725586 1992.154297 -4385.669434
v -4100.557129 1993.406250 -4386.340332
v -4098.950195 1999.393921 -4385.315430
v -4098.634766 1996.984741 -4386.340332
v -4098.634766 1999.488770 -4385.669434
v -4098.950195 1996.889893 -4385.986328
v -4099.276855 1999.488770 -4385.669434
v -4099.276855 1996.984741 -4386.340332

vt 0.501343 0.358551
vt 0.464111 0.451874
vt 0.464111 0.358551
vt 0.501343 0.451874
vt 0.537170 0.358551
vt 0.537170 0.451874
vt 0.501343 0.358551
vt 0.464111 0.451874
vt 0.464111 0.358551
vt 0.501343 0.451874
vt 0.537170 0.358551
vt 0.537170 0.451874
vt 0.501343 0.358551
vt 0.464111 0.451874
vt 0.464111 0.358551
vt 0.501343 0.451874
vt 0.537170 0.358551
vt 0.537170 0.451874

vn -0.228154 0.122378 0.965903
vn -0.525075 -0.571522 0.630603
vn -0.525075 -0.571522 0.630603
vn -0.228154 0.122378 0.965903
vn 0.224365 0.732849 0.642334
vn 0.224365 0.732849 0.642334
vn 0.220096 0.136415 0.965893
vn -0.232422 0.740477 0.630614
vn -0.232422 0.740477 0.630614
vn 0.220096 0.136415 0.965893
vn 0.522467 -0.560736 0.642341
vn 0.522467 -0.560736 0.642341
vn 0.008057 -0.258794 0.965899
vn 0.757494 -0.168942 0.630604
vn 0.757494 -0.168942 0.630604
vn 0.008057 -0.258794 0.965899
vn -0.746838 -0.172122 0.642345
vn -0.746838 -0.172122 0.642345

g polygon2
s 1
usemtl mat3
f 123/123/123 124/124/124 125/125/125
f 123/123/123 126/126/126 124/124/124
f 127/127/127 126/126/126 123/123/123
f 127/127/127 128/128/128 126/126/126
f 129/129/129 130/130/130 131/131/131
f 129/129/129 132/132/132 130/130/130
f 133/133/133 132/132/132 129/129/129
f 133/133/133 134/134/134 132/132/132
f 135/135/135 136/136/136 137/137/137
f 135/135/135 138/138/138 136/136/136
f 139/139/139 138/138/138 135/135/135
f 139/139/139 140/140/140 138/138/138

