mtllib stg400_MotFan_o2_15.mtl

v -3801.101074 2292.321045 -4389.514648
v -3807.994141 2292.321045 -4410.099609
v -3804.547607 2298.290527 -4389.514648
v -3804.547607 2286.351563 -4389.514648
v -3805.260498 2287.586182 -4386.837402
v -3810.727783 2287.586182 -4386.837402
v -3807.994141 2292.321045 -4382.875000
v -3813.461426 2292.321045 -4386.837402
v -3811.440674 2286.351563 -4389.514648
v -3807.994141 2292.321045 -4410.099609
v -3814.887207 2292.321045 -4389.514648
v -3810.727783 2297.055908 -4386.837402
v -3807.994141 2292.321045 -4382.875000
v -3805.260498 2297.055908 -4386.837402
v -3811.440674 2298.290527 -4389.514648
v -3807.994141 2292.321045 -4410.099609
v -3804.547607 2298.290527 -4389.514648
v -3802.526855 2292.321045 -4386.837402
v -3807.994141 2292.321045 -4382.875000
v -3805.260498 2297.055908 -4386.837402

vt 0.766418 1.437378
vt 0.764709 1.851013
vt 0.919495 1.437378
vt 0.613403 1.437378
vt 0.613403 1.355225
vt 0.764038 1.355225
vt 0.763611 1.248840
vt 0.917053 1.355225
vt 0.764038 1.437378
vt 0.765747 1.851013
vt 0.917053 1.437378
vt 0.768921 1.355225
vt 0.769348 1.248840
vt 0.615845 1.355225
vt 0.768921 1.437378
vt 0.767212 1.851013
vt 0.615845 1.437378
vt 0.766418 1.355225
vt 0.766846 1.248840
vt 0.919495 1.355225

vn 7924809334889683200000000000000000.000000 7840161470883427500000000000000000.000000 -1.#QNAN0
vn 7924809334889683200000000000000000.000000 7840161470883427500000000000000000.000000 -1.#QNAN0
vn 7924809334889683200000000000000000.000000 7840161470883427500000000000000000.000000 -1.#QNAN0
vn 7900660838543343300000000000000000.000000 0.000000 0.000000
vn 7900660838543343300000000000000000.000000 0.000000 0.000000
vn 7900660838543343300000000000000000.000000 0.000000 0.000000
vn 7900660838543343300000000000000000.000000 0.000000 0.000000
vn 7900660838543343300000000000000000.000000 0.000000 0.000000
vn 7924809334889683200000000000000000.000000 7840161470883427500000000000000000.000000 -1.#QNAN0
vn 7924809334889683200000000000000000.000000 7840161470883427500000000000000000.000000 -1.#QNAN0
vn 7900660838543343300000000000000000.000000 0.000000 0.000000
vn 7900660838543343300000000000000000.000000 0.000000 0.000000
vn 7900660838543343300000000000000000.000000 0.000000 0.000000
vn 7900660838543343300000000000000000.000000 0.000000 0.000000
vn 7924809334889683200000000000000000.000000 7840161470883427500000000000000000.000000 -1.#QNAN0
vn 7924809334889683200000000000000000.000000 7840161470883427500000000000000000.000000 -1.#QNAN0
vn 7900660838543343300000000000000000.000000 0.000000 0.000000
vn 7924809334889683200000000000000000.000000 7840161470883427500000000000000000.000000 -1.#QNAN0
vn 7900660838543343300000000000000000.000000 0.000000 0.000000
vn 7924809334889683200000000000000000.000000 7840161470883427500000000000000000.000000 -1.#QNAN0

g polygon0
s 1
usemtl mat2
f 1/1/1 2/2/2 3/3/3
f 1/1/1 4/4/4 2/2/2
f 5/5/5 4/4/4 1/1/1
f 5/5/5 6/6/6 4/4/4
f 7/7/7 6/6/6 5/5/5
f 7/7/7 8/8/8 6/6/6
f 9/9/9 10/10/10 4/4/4
f 9/9/9 11/11/11 10/10/10
f 8/8/8 11/11/11 9/9/9
f 8/8/8 12/12/12 11/11/11
f 13/13/13 12/12/12 8/8/8
f 13/13/13 14/14/14 12/12/12
f 15/15/15 16/16/16 11/11/11
f 15/15/15 17/17/17 16/16/16
f 14/14/14 17/17/17 15/15/15
f 18/18/18 1/1/1 3/3/3
f 18/18/18 5/5/5 1/1/1
f 19/19/19 5/5/5 18/18/18
f 6/6/6 9/9/9 4/4/4
f 6/6/6 8/8/8 9/9/9
f 12/12/12 15/15/15 11/11/11
f 12/12/12 14/14/14 15/15/15
f 20/20/20 18/18/18 3/3/3
f 20/20/20 19/19/19 18/18/18

v -3795.020264 2285.796631 -4385.320801
v -3798.063965 2293.672607 -4388.000977
v -3798.338623 2289.603027 -4386.600586
v -3793.637939 2288.438721 -4386.272949
v -3788.025146 2283.566895 -4383.398438
v -3787.969727 2286.247559 -4384.664063
v -3778.775635 2283.701172 -4381.270020
v -3774.528076 2286.462891 -4381.573730
v -3783.313721 2277.772705 -4381.529297
v -3819.862061 2284.471924 -4385.320801
v -3811.519531 2283.169922 -4388.000977
v -3814.906494 2285.442627 -4386.600586
v -3818.265381 2281.953857 -4386.272949
v -3825.290771 2279.529053 -4383.398438
v -3822.996826 2278.140625 -4384.664063
v -3829.799316 2271.451416 -4381.270020
v -3829.531250 2266.392090 -4381.573730
v -3832.664307 2278.345703 -4381.528809
v -3808.588379 2306.647949 -4385.320801
v -3813.887451 2300.074219 -4388.000977
v -3810.225830 2301.871094 -4386.600586
v -3811.567627 2306.524170 -4386.272949
v -3810.154785 2313.821045 -4383.398438
v -3812.504150 2312.528564 -4384.664063
v -3814.895996 2321.764160 -4381.270020
v -3819.411377 2324.061768 -4381.573730
v -3807.492920 2320.798096 -4381.529297
v -3802.568359 2275.298828 -4386.584473
v -3808.907959 2279.051758 -4387.639648
v -3814.149414 2278.249023 -4389.667480
v -3801.832275 2277.588867 -4385.801758
v -3794.633057 2272.556641 -4384.375977
v -3794.415039 2274.633789 -4383.684570
v -3788.560059 2274.416748 -4382.296875
v -3825.179443 2296.257813 -4386.584473
v -3818.759521 2299.871582 -4387.639648
v -3816.834229 2304.812256 -4389.667480
v -3823.564209 2294.475342 -4385.801758
v -3831.521973 2290.756592 -4384.375977
v -3829.832031 2289.529297 -4383.684570
v -3832.947510 2284.567139 -4382.296875
v -3795.722900 2305.360107 -4386.584473
v -3795.803467 2297.993408 -4387.639648
v -3792.487305 2293.855469 -4389.667480
v -3798.074219 2304.852539 -4385.801758
v -3797.315918 2313.603516 -4384.375977
v -3799.223633 2312.753662 -4383.684570
v -3801.963379 2317.932617 -4382.296875
v -3794.415039 2274.633789 -4383.684570
v -3795.020264 2285.796631 -4385.320801
v -3801.832275 2277.588867 -4385.801758
v -3788.025146 2283.566895 -4383.398438
v -3788.560059 2274.416748 -4382.296875
v -3783.313721 2277.772705 -4381.529297
v -3800.858398 2285.137695 -4386.586914
v -3814.149414 2278.249023 -4389.667480
v -3808.907959 2279.051758 -4387.639648
v -3802.481201 2286.021973 -4388.000977
v -3798.338623 2289.603027 -4386.600586
v -3798.063965 2293.672607 -4388.000977
v -3787.910889 2272.569824 -4382.817871
v -3782.222168 2276.386475 -4382.009277
v -3829.832031 2289.529297 -4383.684570
v -3819.862061 2284.471924 -4385.320801
v -3823.564209 2294.475342 -4385.801758
v -3825.290771 2279.529053 -4383.398438
v -3832.947510 2284.567139 -4382.296875
v -3832.664307 2278.345703 -4381.528809
v -3817.513916 2289.857422 -4386.586914
v -3816.834229 2304.812256 -4389.667480
v -3818.759521 2299.871582 -4387.639648
v -3815.936523 2290.820557 -4388.000977
v -3814.906494 2285.442627 -4386.600586
v -3811.519531 2283.169922 -4388.000977
v -3834.871582 2284.928711 -4382.817871
v -3834.410645 2278.093750 -4382.009277
v -3799.223633 2312.753662 -4383.684570
v -3808.588379 2306.647949 -4385.320801
v -3798.074219 2304.852539 -4385.801758
v -3810.154785 2313.821045 -4383.398438
v -3801.963379 2317.932617 -4382.296875
v -3807.492920 2320.798096 -4381.529297
v -3805.098633 2301.921631 -4386.586914
v -3792.487305 2293.855469 -4389.667480
v -3795.803467 2297.993408 -4387.639648
v -3805.053223 2300.074219 -4388.000977
v -3810.225830 2301.871094 -4386.600586
v -3813.887451 2300.074219 -4388.000977
v -3800.688232 2319.418457 -4382.817871
v -3806.837891 2322.436523 -4382.009277
v -3800.858398 2285.137695 -4386.586914
v -3798.338623 2289.603027 -4386.600586
v -3808.907959 2279.051758 -4387.639648
v -3817.513916 2289.857422 -4386.586914
v -3814.906494 2285.442627 -4386.600586
v -3818.759521 2299.871582 -4387.639648
v -3805.098633 2301.921631 -4386.586914
v -3810.225830 2301.871094 -4386.600586
v -3795.803467 2297.993408 -4387.639648
v -3778.775635 2283.701172 -4381.270020
v -3829.799316 2271.451416 -4381.270020
v -3814.895996 2321.764160 -4381.270020

vt 0.890381 0.000244
vt 0.630737 -0.074463
vt 0.672485 0.000244
vt 0.841919 -0.074463
vt 1.067505 0.000244
vt 1.113770 -0.074463
vt 1.414429 0.000244
vt 1.578857 -0.074463
vt 1.140137 0.000244
vt 0.890381 0.000244
vt 0.630737 -0.074463
vt 0.672485 0.000244
vt 0.841919 -0.074463
vt 1.067505 0.000244
vt 1.113770 -0.074463
vt 1.414429 0.000244
vt 1.578857 -0.074463
vt 1.140137 0.000244
vt 0.890381 0.000244
vt 0.630737 -0.074463
vt 0.672485 0.000244
vt 0.841919 -0.074463
vt 1.067505 0.000244
vt 1.113770 -0.074463
vt 1.414429 0.000244
vt 1.578857 -0.074463
vt 1.140137 0.000244
vt 0.399658 -0.074463
vt 0.098022 0.000244
vt 0.010010 -0.074463
vt 0.424927 0.000244
vt 0.694214 -0.074463
vt 0.688843 0.000244
vt 0.925659 0.000244
vt 0.399658 -0.074463
vt 0.098022 0.000244
vt 0.010010 -0.074463
vt 0.424927 0.000244
vt 0.694214 -0.074463
vt 0.688843 0.000244
vt 0.925659 0.000244
vt 0.399658 -0.074463
vt 0.098022 0.000244
vt 0.010010 -0.074463
vt 0.424927 0.000244
vt 0.694214 -0.074463
vt 0.688843 0.000244
vt 0.925659 0.000244
vt -0.059937 0.659424
vt -0.000244 0.924072
vt -0.195068 0.659424
vt 0.206299 0.924072
vt 0.095581 0.659424
vt 0.294067 0.659424
vt 0.356079 -0.000366
vt 0.010010 -0.075073
vt 0.111084 -0.000366
vt 0.354736 -0.075073
vt 0.480713 -0.000366
vt 0.597168 -0.075073
vt 0.917725 -0.074463
vt 1.148560 -0.074463
vt -0.059937 0.659424
vt -0.000244 0.924072
vt -0.195068 0.659424
vt 0.206299 0.924072
vt 0.095581 0.659424
vt 0.294067 0.659424
vt 0.356079 -0.000366
vt 0.010010 -0.075073
vt 0.111084 -0.000366
vt 0.354736 -0.075073
vt 0.480713 -0.000366
vt 0.597168 -0.075073
vt 0.917725 -0.074463
vt 1.148560 -0.074463
vt -0.059937 0.659424
vt -0.000244 0.924072
vt -0.195068 0.659424
vt 0.206299 0.924072
vt 0.095581 0.659424
vt 0.294067 0.659424
vt 0.356079 -0.000366
vt 0.010010 -0.075073
vt 0.111084 -0.000366
vt 0.354736 -0.075073
vt 0.480713 -0.000366
vt 0.597168 -0.075073
vt 0.917725 -0.074463
vt 1.148560 -0.074463
vt -0.347778 0.822266
vt -0.346680 0.924072
vt -0.379761 0.659424
vt -0.347778 0.822266
vt -0.346680 0.924072
vt -0.379761 0.659424
vt -0.347778 0.822266
vt -0.346680 0.924072
vt -0.379761 0.659424
vt 0.414185 0.660156
vt 0.414185 0.660156
vt 0.414185 0.660156

vn -0.158632 0.230593 0.960033
vn -0.229979 0.331906 0.914849
vn -0.273196 0.288516 0.917672
vn -0.040529 0.362134 0.931245
vn -0.199274 0.263176 0.943943
vn -0.141965 0.424797 0.894088
vn -0.034057 0.111205 0.993214
vn -0.069459 0.213627 0.974443
vn -0.032592 -0.072935 0.996804
vn 0.278996 0.022095 0.960038
vn 0.402406 0.033203 0.914859
vn 0.386477 0.092286 0.917670
vn 0.333876 -0.145941 0.931251
vn 0.327565 0.041014 0.943938
vn 0.438840 -0.089477 0.894099
vn 0.113281 -0.026123 0.993219
vn 0.219731 -0.046632 0.974445
vn -0.046813 0.064696 0.996806
vn -0.120364 -0.252631 0.960047
vn -0.172424 -0.365113 0.914857
vn -0.113281 -0.380861 0.917667
vn -0.293344 -0.216193 0.931241
vn -0.128231 -0.304190 0.943941
vn -0.296875 -0.335327 0.894104
vn -0.079284 -0.085082 0.993215
vn -0.150270 -0.166994 0.974439
vn 0.079466 0.008240 0.996803
vn -0.309560 -0.222039 0.924592
vn -0.344360 0.052368 0.937376
vn -0.379458 0.100403 0.919745
vn -0.270512 -0.037354 0.961992
vn -0.291929 -0.273313 0.916557
vn -0.269771 -0.094298 0.958296
vn -0.152407 -0.125124 0.980365
vn -0.037536 0.379081 0.924602
vn 0.217530 0.272034 0.937379
vn 0.276677 0.278387 0.919756
vn 0.102907 0.252935 0.961995
vn -0.090759 0.389463 0.916560
vn 0.053222 0.280758 0.958302
vn -0.032166 0.194524 0.980370
vn 0.347095 -0.157038 0.924589
vn 0.126831 -0.324402 0.937378
vn 0.102785 -0.378791 0.919757
vn 0.167606 -0.215580 0.961994
vn 0.382632 -0.116151 0.916571
vn 0.216550 -0.186460 0.958300
vn 0.184515 -0.069399 0.980376
vn -0.269771 -0.094298 0.958296
vn -0.158632 0.230593 0.960033
vn -0.270512 -0.037354 0.961992
vn -0.199274 0.263176 0.943943
vn -0.152407 -0.125124 0.980365
vn -0.032592 -0.072935 0.996804
vn -0.343010 0.236628 0.909038
vn -0.379458 0.100403 0.919745
vn -0.344360 0.052368 0.937376
vn -0.470940 0.397638 0.787464
vn -0.273196 0.288516 0.917672
vn -0.229979 0.331906 0.914849
vn -0.091370 -0.303346 0.948490
vn 0.117985 -0.240669 0.963410
vn 0.053222 0.280758 0.958302
vn 0.278996 0.022095 0.960038
vn 0.102907 0.252935 0.961995
vn 0.327565 0.041014 0.943938
vn -0.032166 0.194524 0.980370
vn -0.046813 0.064696 0.996806
vn 0.376456 0.178707 0.909035
vn 0.276677 0.278387 0.919756
vn 0.217530 0.272034 0.937379
vn 0.579827 0.209043 0.787466
vn 0.386477 0.092286 0.917670
vn 0.402406 0.033203 0.914859
vn -0.216984 0.230778 0.948504
vn -0.267389 0.018188 0.963417
vn 0.216550 -0.186460 0.958300
vn -0.120364 -0.252631 0.960047
vn 0.167606 -0.215580 0.961994
vn -0.128231 -0.304190 0.943941
vn 0.184515 -0.069399 0.980376
vn 0.079466 0.008240 0.996803
vn -0.033447 -0.415341 0.909051
vn 0.102785 -0.378791 0.919757
vn 0.126831 -0.324402 0.937378
vn -0.108884 -0.606675 0.787457
vn -0.113281 -0.380861 0.917667
vn -0.172424 -0.365113 0.914857
vn 0.308355 0.072511 0.948504
vn 0.149480 0.222480 0.963410
vn -0.343010 0.236628 0.909038
vn -0.273196 0.288516 0.917672
vn -0.344360 0.052368 0.937376
vn 0.376456 0.178707 0.909035
vn 0.386477 0.092286 0.917670
vn 0.217530 0.272034 0.937379
vn -0.033447 -0.415341 0.909051
vn -0.113281 -0.380861 0.917667
vn 0.126831 -0.324402 0.937378
vn -0.034057 0.111205 0.993214
vn 0.113281 -0.026123 0.993219
vn -0.079284 -0.085082 0.993215

g polygon1
s 1
usemtl mat1
f 21/21/21 22/22/22 23/23/23
f 21/21/21 24/24/24 22/22/22
f 25/25/25 24/24/24 21/21/21
f 25/25/25 26/26/26 24/24/24
f 27/27/27 26/26/26 25/25/25
f 27/27/27 28/28/28 26/26/26
f 29/29/29 28/28/28 27/27/27
f 30/30/30 31/31/31 32/32/32
f 30/30/30 33/33/33 31/31/31
f 34/34/34 33/33/33 30/30/30
f 34/34/34 35/35/35 33/33/33
f 36/36/36 35/35/35 34/34/34
f 36/36/36 37/37/37 35/35/35
f 38/38/38 37/37/37 36/36/36
f 39/39/39 40/40/40 41/41/41
f 39/39/39 42/42/42 40/40/40
f 43/43/43 42/42/42 39/39/39
f 43/43/43 44/44/44 42/42/42
f 45/45/45 44/44/44 43/43/43
f 45/45/45 46/46/46 44/44/44
f 47/47/47 46/46/46 45/45/45
f 48/48/48 49/49/49 50/50/50
f 48/48/48 51/51/51 49/49/49
f 52/52/52 51/51/51 48/48/48
f 52/52/52 53/53/53 51/51/51
f 54/54/54 53/53/53 52/52/52
f 55/55/55 56/56/56 57/57/57
f 55/55/55 58/58/58 56/56/56
f 59/59/59 58/58/58 55/55/55
f 59/59/59 60/60/60 58/58/58
f 61/61/61 60/60/60 59/59/59
f 62/62/62 63/63/63 64/64/64
f 62/62/62 65/65/65 63/63/63
f 66/66/66 65/65/65 62/62/62
f 66/66/66 67/67/67 65/65/65
f 68/68/68 67/67/67 66/66/66
f 69/69/69 70/70/70 71/71/71
f 69/69/69 72/72/72 70/70/70
f 73/73/73 72/72/72 69/69/69
f 73/73/73 74/74/74 72/72/72
f 75/75/75 76/76/76 77/77/77
f 75/75/75 78/78/78 76/76/76
f 79/79/79 78/78/78 75/75/75
f 79/79/79 80/80/80 78/78/78
f 81/81/81 54/54/54 52/52/52
f 81/81/81 29/29/29 54/54/54
f 82/82/82 29/29/29 81/81/81
f 82/82/82 28/28/28 29/29/29
f 83/83/83 84/84/84 85/85/85
f 83/83/83 86/86/86 84/84/84
f 87/87/87 86/86/86 83/83/83
f 87/87/87 88/88/88 86/86/86
f 89/89/89 90/90/90 91/91/91
f 89/89/89 92/92/92 90/90/90
f 93/93/93 92/92/92 89/89/89
f 93/93/93 94/94/94 92/92/92
f 95/95/95 61/61/61 59/59/59
f 95/95/95 38/38/38 61/61/61
f 96/96/96 38/38/38 95/95/95
f 96/96/96 37/37/37 38/38/38
f 97/97/97 98/98/98 99/99/99
f 97/97/97 100/100/100 98/98/98
f 101/101/101 100/100/100 97/97/97
f 101/101/101 102/102/102 100/100/100
f 103/103/103 104/104/104 105/105/105
f 103/103/103 106/106/106 104/104/104
f 107/107/107 106/106/106 103/103/103
f 107/107/107 108/108/108 106/106/106
f 109/109/109 68/68/68 66/66/66
f 109/109/109 47/47/47 68/68/68
f 110/110/110 47/47/47 109/109/109
f 110/110/110 46/46/46 47/47/47
f 111/111/111 70/70/70 112/112/112
f 111/111/111 71/71/71 70/70/70
f 113/113/113 71/71/71 111/111/111
f 114/114/114 84/84/84 115/115/115
f 114/114/114 85/85/85 84/84/84
f 116/116/116 85/85/85 114/114/114
f 117/117/117 98/98/98 118/118/118
f 117/117/117 99/99/99 98/98/98
f 119/119/119 99/99/99 117/117/117
f 120/120/120 72/72/72 74/74/74
f 121/121/121 86/86/86 88/88/88
f 122/122/122 100/100/100 102/102/102

v -3799.845215 2287.852783 -4386.875977
v -3804.333740 2289.714844 -4388.925781
v -3799.996826 2287.210693 -4387.583984
v -3804.182129 2290.356689 -4388.217773
v -3799.354492 2288.322998 -4387.583984
v -3803.691650 2290.827148 -4388.925781
v -3815.669189 2287.622559 -4386.875977
v -3811.812256 2290.578857 -4388.925781
v -3816.149414 2288.074707 -4387.583984
v -3811.332031 2290.126465 -4388.217773
v -3815.507080 2286.962402 -4387.583984
v -3811.170166 2289.466309 -4388.925781
v -3807.956543 2301.441650 -4386.875977
v -3807.324707 2296.623291 -4388.925781
v -3807.324707 2301.631348 -4387.583984
v -3807.956543 2296.433594 -4388.217773
v -3808.609131 2301.631348 -4387.583984
v -3808.609131 2296.623291 -4388.925781

vt 0.501343 0.358551
vt 0.464111 0.451874
vt 0.464111 0.358551
vt 0.501343 0.451874
vt 0.537170 0.358551
vt 0.537170 0.451874
vt 0.501343 0.358551
vt 0.464111 0.451874
vt 0.464111 0.358551
vt 0.501343 0.451874
vt 0.537170 0.358551
vt 0.537170 0.451874
vt 0.501343 0.358551
vt 0.464111 0.451874
vt 0.464111 0.358551
vt 0.501343 0.451874
vt 0.537170 0.358551
vt 0.537170 0.451874

vn -0.228154 0.122378 0.965903
vn -0.525075 -0.571522 0.630603
vn -0.525075 -0.571522 0.630603
vn -0.228154 0.122378 0.965903
vn 0.224365 0.732849 0.642334
vn 0.224365 0.732849 0.642334
vn 0.220096 0.136415 0.965893
vn -0.232422 0.740477 0.630614
vn -0.232422 0.740477 0.630614
vn 0.220096 0.136415 0.965893
vn 0.522467 -0.560736 0.642341
vn 0.522467 -0.560736 0.642341
vn 0.008057 -0.258794 0.965899
vn 0.757494 -0.168942 0.630604
vn 0.757494 -0.168942 0.630604
vn 0.008057 -0.258794 0.965899
vn -0.746838 -0.172122 0.642345
vn -0.746838 -0.172122 0.642345

g polygon2
s 1
usemtl mat3
f 123/123/123 124/124/124 125/125/125
f 123/123/123 126/126/126 124/124/124
f 127/127/127 126/126/126 123/123/123
f 127/127/127 128/128/128 126/126/126
f 129/129/129 130/130/130 131/131/131
f 129/129/129 132/132/132 130/130/130
f 133/133/133 132/132/132 129/129/129
f 133/133/133 134/134/134 132/132/132
f 135/135/135 136/136/136 137/137/137
f 135/135/135 138/138/138 136/136/136
f 139/139/139 138/138/138 135/135/135
f 139/139/139 140/140/140 138/138/138

