mtllib stg400_MotFan_g5_07.mtl

v 5403.610352 334.670959 681.730164
v 5390.744629 334.670959 686.038269
v 5403.610352 338.401917 683.884216
v 5403.610352 330.940002 683.884216
v 5405.283203 331.711975 684.329529
v 5405.283203 331.711975 687.747009
v 5407.759766 334.670959 686.038269
v 5405.283203 334.670959 689.455017
v 5403.610352 330.940002 688.192322
v 5390.744629 334.670959 686.038269
v 5403.610352 334.670959 690.346375
v 5405.283203 337.629944 687.747009
v 5407.759766 334.670959 686.038269
v 5405.283203 337.629944 684.329529
v 5403.610352 338.401917 688.192322
v 5390.744629 334.670959 686.038269
v 5403.610352 338.401917 683.884216
v 5405.283203 334.670959 682.621521
v 5407.759766 334.670959 686.038269
v 5405.283203 337.629944 684.329529

vt 0.766418 1.437378
vt 0.764709 1.851013
vt 0.919495 1.437378
vt 0.613403 1.437378
vt 0.613403 1.355225
vt 0.764038 1.355225
vt 0.763611 1.248840
vt 0.917053 1.355225
vt 0.764038 1.437378
vt 0.765747 1.851013
vt 0.917053 1.437378
vt 0.768921 1.355225
vt 0.769348 1.248840
vt 0.615845 1.355225
vt 0.768921 1.437378
vt 0.767212 1.851013
vt 0.615845 1.437378
vt 0.766418 1.355225
vt 0.766846 1.248840
vt 0.919495 1.355225

vn 7924809334889683200000000000000000.000000 7840161470883427500000000000000000.000000 -1.#QNAN0
vn 7924809334889683200000000000000000.000000 7840161470883427500000000000000000.000000 -1.#QNAN0
vn 7924809334889683200000000000000000.000000 7840161470883427500000000000000000.000000 -1.#QNAN0
vn 7900660838543343300000000000000000.000000 0.000000 0.000000
vn 7900660838543343300000000000000000.000000 0.000000 0.000000
vn 7900660838543343300000000000000000.000000 0.000000 0.000000
vn 7900660838543343300000000000000000.000000 0.000000 0.000000
vn 7900660838543343300000000000000000.000000 0.000000 0.000000
vn 7924809334889683200000000000000000.000000 7840161470883427500000000000000000.000000 -1.#QNAN0
vn 7924809334889683200000000000000000.000000 7840161470883427500000000000000000.000000 -1.#QNAN0
vn 7900660838543343300000000000000000.000000 0.000000 0.000000
vn 7900660838543343300000000000000000.000000 0.000000 0.000000
vn 7900660838543343300000000000000000.000000 0.000000 0.000000
vn 7900660838543343300000000000000000.000000 0.000000 0.000000
vn 7924809334889683200000000000000000.000000 7840161470883427500000000000000000.000000 -1.#QNAN0
vn 7924809334889683200000000000000000.000000 7840161470883427500000000000000000.000000 -1.#QNAN0
vn 7900660838543343300000000000000000.000000 0.000000 0.000000
vn 7924809334889683200000000000000000.000000 7840161470883427500000000000000000.000000 -1.#QNAN0
vn 7900660838543343300000000000000000.000000 0.000000 0.000000
vn 7924809334889683200000000000000000.000000 7840161470883427500000000000000000.000000 -1.#QNAN0

g polygon0
s 1
usemtl mat2
f 1/1/1 2/2/2 3/3/3
f 1/1/1 4/4/4 2/2/2
f 5/5/5 4/4/4 1/1/1
f 5/5/5 6/6/6 4/4/4
f 7/7/7 6/6/6 5/5/5
f 7/7/7 8/8/8 6/6/6
f 9/9/9 10/10/10 4/4/4
f 9/9/9 11/11/11 10/10/10
f 8/8/8 11/11/11 9/9/9
f 8/8/8 12/12/12 11/11/11
f 13/13/13 12/12/12 8/8/8
f 13/13/13 14/14/14 12/12/12
f 15/15/15 16/16/16 11/11/11
f 15/15/15 17/17/17 16/16/16
f 14/14/14 17/17/17 15/15/15
f 18/18/18 1/1/1 3/3/3
f 18/18/18 5/5/5 1/1/1
f 19/19/19 5/5/5 18/18/18
f 6/6/6 9/9/9 4/4/4
f 6/6/6 8/8/8 9/9/9
f 12/12/12 15/15/15 11/11/11
f 12/12/12 14/14/14 15/15/15
f 20/20/20 18/18/18 3/3/3
f 20/20/20 19/19/19 18/18/18

v 5406.231445 330.593567 677.929626
v 5404.556152 335.515442 679.831726
v 5405.431152 332.972473 680.003845
v 5405.636230 332.244446 677.065369
v 5407.432617 329.199768 673.557800
v 5406.641602 330.874817 673.523376
v 5408.762695 329.283264 667.776794
v 5408.573242 331.009583 665.121765
v 5408.601074 325.578674 670.612732
v 5406.231445 329.765198 693.455505
v 5404.555664 328.951477 688.241394
v 5405.431152 330.371643 690.358826
v 5405.636230 328.191223 692.457947
v 5407.432617 326.675842 696.848816
v 5406.641602 325.807922 695.414734
v 5408.762695 321.627258 699.666443
v 5408.573242 318.465393 699.498718
v 5408.601074 325.936096 701.457214
v 5406.231934 343.625549 686.409607
v 5404.556152 339.516663 689.721619
v 5405.431152 340.639465 687.432800
v 5405.636230 343.547913 688.271423
v 5407.433105 348.108704 687.388855
v 5406.642090 347.300842 688.857361
v 5408.763184 353.073059 690.352234
v 5408.573242 354.508606 693.174255
v 5408.601074 352.468811 685.724792
v 5405.441406 324.031799 682.647156
v 5404.782227 326.377747 686.609558
v 5403.514160 325.876038 689.885681
v 5405.930664 325.463684 682.187195
v 5406.821777 322.317932 677.687195
v 5407.253906 323.616516 677.551697
v 5408.121094 323.481018 673.891785
v 5405.441406 337.131165 696.779236
v 5404.782227 339.389954 692.767029
v 5403.514648 342.477844 691.562927
v 5405.930664 336.017151 695.769958
v 5406.821777 333.693176 700.743103
v 5407.253906 332.926331 699.686951
v 5408.121094 329.824524 701.634460
v 5405.441406 342.820618 678.369080
v 5404.782227 338.215881 678.418884
v 5403.514648 335.629700 676.346863
v 5405.930664 342.503479 679.838318
v 5406.822266 347.972473 679.364441
v 5407.254395 347.441467 680.556824
v 5408.121582 350.678040 682.269226
v 5407.253906 323.616516 677.551697
v 5406.231445 330.593567 677.929626
v 5405.930664 325.463684 682.187195
v 5407.432617 329.199768 673.557800
v 5408.121094 323.481018 673.891785
v 5408.601074 325.578674 670.612732
v 5405.439941 330.181213 681.578552
v 5403.514160 325.876038 689.885681
v 5404.782227 326.377747 686.609558
v 5404.555664 330.734192 682.592957
v 5405.431152 332.972473 680.003845
v 5404.556152 335.515442 679.831726
v 5407.795410 322.326721 673.486023
v 5408.300781 324.711487 669.930847
v 5407.253906 332.926331 699.686951
v 5406.231445 329.765198 693.455505
v 5405.930664 336.017151 695.769958
v 5407.432617 326.675842 696.848816
v 5408.121094 329.824524 701.634460
v 5408.601074 325.936096 701.457214
v 5405.439941 333.131409 691.987732
v 5403.514648 342.477844 691.562927
v 5404.782227 339.389954 692.767029
v 5404.555664 333.733459 691.002625
v 5405.431152 330.371643 690.358826
v 5404.555664 328.951477 688.241394
v 5407.795410 330.050842 702.837097
v 5408.300781 325.778625 702.548523
v 5407.254395 347.441467 680.556824
v 5406.231934 343.625549 686.409607
v 5405.930664 342.503479 679.838318
v 5407.433105 348.108704 687.388855
v 5408.121582 350.678040 682.269226
v 5408.601074 352.468811 685.724792
v 5405.439941 340.671692 684.228455
v 5403.514648 335.629700 676.346863
v 5404.782227 338.215881 678.418884
v 5404.556152 339.516663 684.199890
v 5405.431152 340.639465 687.432800
v 5404.556152 339.516663 689.721619
v 5407.795410 351.606750 681.472351
v 5408.300781 353.493469 685.315369
v 5405.439941 330.181213 681.578552
v 5405.431152 332.972473 680.003845
v 5404.782227 326.377747 686.609558
v 5405.439941 333.131409 691.987732
v 5405.431152 330.371643 690.358826
v 5404.782227 339.389954 692.767029
v 5405.439941 340.671692 684.228455
v 5405.431152 340.639465 687.432800
v 5404.782227 338.215881 678.418884
v 5408.762695 329.283264 667.776794
v 5408.762695 321.627258 699.666443
v 5408.763184 353.073059 690.352234

vt 0.890381 0.000244
vt 0.630737 -0.074463
vt 0.672485 0.000244
vt 0.841919 -0.074463
vt 1.067505 0.000244
vt 1.113770 -0.074463
vt 1.414429 0.000244
vt 1.578857 -0.074463
vt 1.140137 0.000244
vt 0.890381 0.000244
vt 0.630737 -0.074463
vt 0.672485 0.000244
vt 0.841919 -0.074463
vt 1.067505 0.000244
vt 1.113770 -0.074463
vt 1.414429 0.000244
vt 1.578857 -0.074463
vt 1.140137 0.000244
vt 0.890381 0.000244
vt 0.630737 -0.074463
vt 0.672485 0.000244
vt 0.841919 -0.074463
vt 1.067505 0.000244
vt 1.113770 -0.074463
vt 1.414429 0.000244
vt 1.578857 -0.074463
vt 1.140137 0.000244
vt 0.399658 -0.074463
vt 0.098022 0.000244
vt 0.010010 -0.074463
vt 0.424927 0.000244
vt 0.694214 -0.074463
vt 0.688843 0.000244
vt 0.925659 0.000244
vt 0.399658 -0.074463
vt 0.098022 0.000244
vt 0.010010 -0.074463
vt 0.424927 0.000244
vt 0.694214 -0.074463
vt 0.688843 0.000244
vt 0.925659 0.000244
vt 0.399658 -0.074463
vt 0.098022 0.000244
vt 0.010010 -0.074463
vt 0.424927 0.000244
vt 0.694214 -0.074463
vt 0.688843 0.000244
vt 0.925659 0.000244
vt -0.059937 0.659424
vt -0.000244 0.924072
vt -0.195068 0.659424
vt 0.206299 0.924072
vt 0.095581 0.659424
vt 0.294067 0.659424
vt 0.356079 -0.000366
vt 0.010010 -0.075073
vt 0.111084 -0.000366
vt 0.354736 -0.075073
vt 0.480713 -0.000366
vt 0.597168 -0.075073
vt 0.917725 -0.074463
vt 1.148560 -0.074463
vt -0.059937 0.659424
vt -0.000244 0.924072
vt -0.195068 0.659424
vt 0.206299 0.924072
vt 0.095581 0.659424
vt 0.294067 0.659424
vt 0.356079 -0.000366
vt 0.010010 -0.075073
vt 0.111084 -0.000366
vt 0.354736 -0.075073
vt 0.480713 -0.000366
vt 0.597168 -0.075073
vt 0.917725 -0.074463
vt 1.148560 -0.074463
vt -0.059937 0.659424
vt -0.000244 0.924072
vt -0.195068 0.659424
vt 0.206299 0.924072
vt 0.095581 0.659424
vt 0.294067 0.659424
vt 0.356079 -0.000366
vt 0.010010 -0.075073
vt 0.111084 -0.000366
vt 0.354736 -0.075073
vt 0.480713 -0.000366
vt 0.597168 -0.075073
vt 0.917725 -0.074463
vt 1.148560 -0.074463
vt -0.347778 0.822266
vt -0.346680 0.924072
vt -0.379761 0.659424
vt -0.347778 0.822266
vt -0.346680 0.924072
vt -0.379761 0.659424
vt -0.347778 0.822266
vt -0.346680 0.924072
vt -0.379761 0.659424
vt 0.414185 0.660156
vt 0.414185 0.660156
vt 0.414185 0.660156

vn 0.960033 0.230593 0.158632
vn 0.914849 0.331906 0.229979
vn 0.917672 0.288516 0.273196
vn 0.931245 0.362134 0.040529
vn 0.943943 0.263176 0.199274
vn 0.894088 0.424797 0.141965
vn 0.993214 0.111205 0.034057
vn 0.974443 0.213627 0.069459
vn 0.996804 -0.072935 0.032592
vn 0.960038 0.022095 -0.278996
vn 0.914859 0.033203 -0.402406
vn 0.917670 0.092286 -0.386477
vn 0.931251 -0.145941 -0.333876
vn 0.943938 0.041014 -0.327565
vn 0.894099 -0.089477 -0.438840
vn 0.993220 -0.026123 -0.113281
vn 0.974445 -0.046632 -0.219731
vn 0.996806 0.064696 0.046813
vn 0.960047 -0.252631 0.120364
vn 0.914857 -0.365113 0.172424
vn 0.917667 -0.380861 0.113282
vn 0.931241 -0.216193 0.293344
vn 0.943941 -0.304190 0.128231
vn 0.894104 -0.335327 0.296875
vn 0.993215 -0.085082 0.079284
vn 0.974439 -0.166994 0.150270
vn 0.996804 0.008240 -0.079466
vn 0.924592 -0.222039 0.309560
vn 0.937376 0.052368 0.344360
vn 0.919745 0.100403 0.379458
vn 0.961992 -0.037354 0.270512
vn 0.916557 -0.273313 0.291929
vn 0.958296 -0.094298 0.269771
vn 0.980365 -0.125125 0.152408
vn 0.924602 0.379081 0.037536
vn 0.937379 0.272034 -0.217529
vn 0.919756 0.278387 -0.276677
vn 0.961995 0.252935 -0.102907
vn 0.916560 0.389463 0.090759
vn 0.958302 0.280758 -0.053222
vn 0.980370 0.194524 0.032166
vn 0.924589 -0.157038 -0.347095
vn 0.937378 -0.324402 -0.126831
vn 0.919757 -0.378792 -0.102785
vn 0.961994 -0.215581 -0.167606
vn 0.916571 -0.116151 -0.382632
vn 0.958300 -0.186460 -0.216550
vn 0.980376 -0.069399 -0.184515
vn 0.958296 -0.094298 0.269771
vn 0.960033 0.230593 0.158632
vn 0.961992 -0.037354 0.270512
vn 0.943943 0.263176 0.199274
vn 0.980365 -0.125125 0.152408
vn 0.996804 -0.072935 0.032592
vn 0.909038 0.236628 0.343010
vn 0.919745 0.100403 0.379458
vn 0.937376 0.052368 0.344360
vn 0.787464 0.397638 0.470940
vn 0.917672 0.288516 0.273196
vn 0.914849 0.331906 0.229979
vn 0.948490 -0.303346 0.091370
vn 0.963410 -0.240669 -0.117985
vn 0.958302 0.280758 -0.053222
vn 0.960038 0.022095 -0.278996
vn 0.961995 0.252935 -0.102907
vn 0.943938 0.041014 -0.327565
vn 0.980370 0.194524 0.032166
vn 0.996806 0.064696 0.046813
vn 0.909035 0.178707 -0.376456
vn 0.919756 0.278387 -0.276677
vn 0.937379 0.272034 -0.217529
vn 0.787466 0.209043 -0.579827
vn 0.917670 0.092286 -0.386477
vn 0.914859 0.033203 -0.402406
vn 0.948504 0.230778 0.216984
vn 0.963413 0.018189 0.267404
vn 0.958300 -0.186460 -0.216550
vn 0.960047 -0.252631 0.120364
vn 0.961994 -0.215581 -0.167606
vn 0.943941 -0.304190 0.128231
vn 0.980376 -0.069399 -0.184515
vn 0.996804 0.008240 -0.079466
vn 0.909051 -0.415341 0.033447
vn 0.919757 -0.378792 -0.102785
vn 0.937378 -0.324402 -0.126831
vn 0.787457 -0.606676 0.108884
vn 0.917667 -0.380861 0.113282
vn 0.914857 -0.365113 0.172424
vn 0.948504 0.072511 -0.308355
vn 0.963410 0.222480 -0.149480
vn 0.909038 0.236628 0.343010
vn 0.917672 0.288516 0.273196
vn 0.937376 0.052368 0.344360
vn 0.909035 0.178707 -0.376456
vn 0.917670 0.092286 -0.386477
vn 0.937379 0.272034 -0.217529
vn 0.909051 -0.415341 0.033447
vn 0.917667 -0.380861 0.113282
vn 0.937378 -0.324402 -0.126831
vn 0.993214 0.111205 0.034057
vn 0.993220 -0.026123 -0.113281
vn 0.993215 -0.085082 0.079284

g polygon1
s 1
usemtl mat1
f 21/21/21 22/22/22 23/23/23
f 21/21/21 24/24/24 22/22/22
f 25/25/25 24/24/24 21/21/21
f 25/25/25 26/26/26 24/24/24
f 27/27/27 26/26/26 25/25/25
f 27/27/27 28/28/28 26/26/26
f 29/29/29 28/28/28 27/27/27
f 30/30/30 31/31/31 32/32/32
f 30/30/30 33/33/33 31/31/31
f 34/34/34 33/33/33 30/30/30
f 34/34/34 35/35/35 33/33/33
f 36/36/36 35/35/35 34/34/34
f 36/36/36 37/37/37 35/35/35
f 38/38/38 37/37/37 36/36/36
f 39/39/39 40/40/40 41/41/41
f 39/39/39 42/42/42 40/40/40
f 43/43/43 42/42/42 39/39/39
f 43/43/43 44/44/44 42/42/42
f 45/45/45 44/44/44 43/43/43
f 45/45/45 46/46/46 44/44/44
f 47/47/47 46/46/46 45/45/45
f 48/48/48 49/49/49 50/50/50
f 48/48/48 51/51/51 49/49/49
f 52/52/52 51/51/51 48/48/48
f 52/52/52 53/53/53 51/51/51
f 54/54/54 53/53/53 52/52/52
f 55/55/55 56/56/56 57/57/57
f 55/55/55 58/58/58 56/56/56
f 59/59/59 58/58/58 55/55/55
f 59/59/59 60/60/60 58/58/58
f 61/61/61 60/60/60 59/59/59
f 62/62/62 63/63/63 64/64/64
f 62/62/62 65/65/65 63/63/63
f 66/66/66 65/65/65 62/62/62
f 66/66/66 67/67/67 65/65/65
f 68/68/68 67/67/67 66/66/66
f 69/69/69 70/70/70 71/71/71
f 69/69/69 72/72/72 70/70/70
f 73/73/73 72/72/72 69/69/69
f 73/73/73 74/74/74 72/72/72
f 75/75/75 76/76/76 77/77/77
f 75/75/75 78/78/78 76/76/76
f 79/79/79 78/78/78 75/75/75
f 79/79/79 80/80/80 78/78/78
f 81/81/81 54/54/54 52/52/52
f 81/81/81 29/29/29 54/54/54
f 82/82/82 29/29/29 81/81/81
f 82/82/82 28/28/28 29/29/29
f 83/83/83 84/84/84 85/85/85
f 83/83/83 86/86/86 84/84/84
f 87/87/87 86/86/86 83/83/83
f 87/87/87 88/88/88 86/86/86
f 89/89/89 90/90/90 91/91/91
f 89/89/89 92/92/92 90/90/90
f 93/93/93 92/92/92 89/89/89
f 93/93/93 94/94/94 92/92/92
f 95/95/95 61/61/61 59/59/59
f 95/95/95 38/38/38 61/61/61
f 96/96/96 38/38/38 95/95/95
f 96/96/96 37/37/37 38/38/38
f 97/97/97 98/98/98 99/99/99
f 97/97/97 100/100/100 98/98/98
f 101/101/101 100/100/100 97/97/97
f 101/101/101 102/102/102 100/100/100
f 103/103/103 104/104/104 105/105/105
f 103/103/103 106/106/106 104/104/104
f 107/107/107 106/106/106 103/103/103
f 107/107/107 108/108/108 106/106/106
f 109/109/109 68/68/68 66/66/66
f 109/109/109 47/47/47 68/68/68
f 110/110/110 47/47/47 109/109/109
f 110/110/110 46/46/46 47/47/47
f 111/111/111 70/70/70 112/112/112
f 111/111/111 71/71/71 70/70/70
f 113/113/113 71/71/71 111/111/111
f 114/114/114 84/84/84 115/115/115
f 114/114/114 85/85/85 84/84/84
f 116/116/116 85/85/85 114/114/114
f 117/117/117 98/98/98 118/118/118
f 117/117/117 99/99/99 98/98/98
f 119/119/119 99/99/99 117/117/117
f 120/120/120 72/72/72 74/74/74
f 121/121/121 86/86/86 88/88/88
f 122/122/122 100/100/100 102/102/102

v 5405.259277 331.878235 680.945374
v 5403.978027 333.042053 683.750549
v 5404.816406 331.476868 681.039856
v 5404.420898 333.443420 683.655701
v 5404.816406 332.172302 680.638489
v 5403.978027 333.737122 683.349182
v 5405.259277 331.734314 690.835266
v 5403.978027 333.581848 688.424500
v 5404.816406 332.017029 691.135193
v 5404.420898 333.299500 688.124573
v 5404.816406 331.321960 690.733826
v 5403.978027 332.886780 688.023132
v 5405.259277 340.371399 686.014832
v 5403.978027 337.360046 685.620056
v 5404.816895 340.489685 685.620056
v 5404.420898 337.241394 686.014832
v 5404.816895 340.489685 686.422791
v 5403.978027 337.360046 686.422791

vt 0.501343 0.358551
vt 0.464111 0.451874
vt 0.464111 0.358551
vt 0.501343 0.451874
vt 0.537170 0.358551
vt 0.537170 0.451874
vt 0.501343 0.358551
vt 0.464111 0.451874
vt 0.464111 0.358551
vt 0.501343 0.451874
vt 0.537170 0.358551
vt 0.537170 0.451874
vt 0.501343 0.358551
vt 0.464111 0.451874
vt 0.464111 0.358551
vt 0.501343 0.451874
vt 0.537170 0.358551
vt 0.537170 0.451874

vn 0.965903 0.122378 0.228155
vn 0.630602 -0.571522 0.525075
vn 0.630602 -0.571522 0.525075
vn 0.965903 0.122378 0.228155
vn 0.642334 0.732849 -0.224365
vn 0.642334 0.732849 -0.224365
vn 0.965893 0.136415 -0.220095
vn 0.630614 0.740477 0.232422
vn 0.630614 0.740477 0.232422
vn 0.965893 0.136415 -0.220095
vn 0.642341 -0.560736 -0.522467
vn 0.642341 -0.560736 -0.522467
vn 0.965899 -0.258794 -0.008057
vn 0.630604 -0.168942 -0.757494
vn 0.630604 -0.168942 -0.757494
vn 0.965899 -0.258794 -0.008057
vn 0.642344 -0.172122 0.746838
vn 0.642344 -0.172122 0.746838

g polygon2
s 1
usemtl mat3
f 123/123/123 124/124/124 125/125/125
f 123/123/123 126/126/126 124/124/124
f 127/127/127 126/126/126 123/123/123
f 127/127/127 128/128/128 126/126/126
f 129/129/129 130/130/130 131/131/131
f 129/129/129 132/132/132 130/130/130
f 133/133/133 132/132/132 129/129/129
f 133/133/133 134/134/134 132/132/132
f 135/135/135 136/136/136 137/137/137
f 135/135/135 138/138/138 136/136/136
f 139/139/139 138/138/138 135/135/135
f 139/139/139 140/140/140 138/138/138

