# Blender v2.77 (sub 0) OBJ File: ''
# www.blender.org
mtllib Dash Panel.mtl
o Mesh_0232
v 0.955987 0.236937 -0.719168
v 1.381602 0.293917 -0.719168
v 0.955986 0.236936 2.500001
v 1.381601 0.293916 2.500001
v 2.092274 0.000000 -2.038320
v 1.563439 0.293917 -2.038320
v 1.563479 0.000001 -2.500001
v 0.955987 0.236937 -2.038320
v 0.955510 0.000001 -2.500001
v 1.914791 -0.000001 2.500001
v 0.956004 -0.000001 2.500001
v 1.914791 0.000000 -0.719168
v -0.955986 0.236937 -0.719168
v -0.955986 0.236937 -2.038320
v -0.955987 0.236936 2.500001
v -1.381601 0.293917 -0.719168
v -1.381602 0.293916 2.500001
v -0.955509 0.000001 -2.500001
v -1.563478 0.000001 -2.500001
v -1.563438 0.293917 -2.038320
v -2.092273 0.000000 -2.038320
v -1.914792 -0.000001 2.500001
v -0.956005 -0.000001 2.500001
v -1.914791 0.000000 -0.719168
v 0.955987 0.236937 -0.719168
v 0.955986 0.236936 2.500001
v -0.955986 0.236937 -0.719168
v -0.955987 0.236936 2.500001
vt 0.5000 0.0000
vt 0.0000 0.0000
vt 0.5000 0.5000
vt 0.0000 0.5000
vt 0.3711 0.5000
vt 0.1680 0.5000
vt 0.1680 1.0000
vt 0.0000 1.0000
vt 0.0000 0.5000
vt 0.7422 0.2695
vt 0.6992 0.4922
vt 0.5195 0.2695
vt 0.6289 0.4922
vt 0.4961 0.5039
vt 0.4961 0.9961
vt 0.0039 0.5039
vt 0.0039 0.9961
vt 0.2227 1.0000
vt 0.0000 1.0000
vt 0.2227 0.5000
vt 0.0000 0.5000
vt 0.7422 0.2539
vt 0.7422 0.4844
vt 0.5000 0.2539
vt 0.5000 0.4844
vt 1.0000 1.0000
vt 1.0000 0.5000
vt 0.5000 1.0000
vt 0.5000 0.5000
vt 0.5000 0.5000
vt 0.5000 0.0000
vt 0.0000 0.5000
vt 0.0000 0.0000
vt 0.0000 0.5000
vt 0.1680 0.5000
vt 0.0000 1.0000
vt 0.1680 1.0000
vt 0.3711 0.5000
vt 0.7422 0.2695
vt 0.5195 0.2695
vt 0.6992 0.4922
vt 0.6289 0.4922
vt 0.4961 0.5039
vt 0.0039 0.5039
vt 0.4961 0.9961
vt 0.0039 0.9961
vt 0.2227 1.0000
vt 0.2227 0.5000
vt 0.0000 1.0000
vt 0.0000 0.5000
vt 0.7422 0.2539
vt 0.5000 0.2539
vt 0.7422 0.4844
vt 0.5000 0.4844
vt 1.0000 0.7461
vt 0.5000 0.7461
vt 1.0000 1.0000
vt 0.5000 1.0000
vt 1.0000 1.0000
vt 1.0000 0.7539
vt 1.0000 1.0000
vt 1.0000 0.7539
vt 1.0000 0.0000
vt 0.0000 0.0000
vt 1.0000 1.0000
vt 0.0000 1.0000
vn -0.1327 0.9912 0.0000
vn 0.4245 0.7638 -0.4862
vn 0.2386 0.9191 -0.3134
vn -0.0789 0.8409 -0.5354
vn -0.0569 0.9389 -0.3396
vn -0.0368 0.8686 -0.4942
vn 0.0000 0.8897 -0.4566
vn 0.0000 0.0000 1.0000
vn 0.4828 0.8758 0.0000
vn 0.4817 0.8739 0.0648
vn 0.4839 0.8726 0.0663
vn 0.4826 0.8734 0.0654
vn 0.4847 0.8721 0.0668
vn -0.0934 0.9956 0.0000
vn -0.1219 0.9925 -0.0132
vn -0.1015 0.9948 -0.0038
vn -0.1327 0.9910 -0.0183
vn 0.0000 1.0000 0.0000
vn 0.1327 0.9912 0.0000
vn -0.1404 0.8491 -0.5093
vn 0.0368 0.8686 -0.4942
vn -0.1590 0.8328 -0.5302
vn -0.4245 0.7638 -0.4862
vn -0.4828 0.8758 0.0000
vn -0.4817 0.8739 0.0648
vn -0.4817 0.8738 0.0659
vn -0.4843 0.8725 0.0651
vn -0.4848 0.8722 0.0657
vn -0.4822 0.8735 0.0665
vn -0.4847 0.8721 0.0668
vn 0.0934 0.9956 0.0000
vn 0.1015 0.9948 -0.0038
vn 0.1219 0.9925 -0.0132
vn 0.1327 0.9910 -0.0183
usemtl Tex_0068_0_dds
s 1
f 1/1/1 3/2/1 2/3/1
f 2/3/1 3/2/1 4/4/1
f 5/5/2 7/6/3 6/7/2
f 6/7/4 7/6/5 8/8/6
f 7/6/5 9/9/7 8/8/6
f 10/10/8 4/11/8 11/12/8
f 11/12/8 4/11/8 3/13/8
f 12/14/9 2/15/9 10/16/9
f 10/16/9 2/15/9 4/17/9
f 12/18/10 5/19/11 2/20/12
f 2/20/12 5/19/11 6/21/13
f 8/22/14 1/23/15 6/24/16
f 6/24/16 1/23/15 2/25/17
f 1/26/18 8/27/18 13/28/18
f 13/28/18 8/27/18 14/29/18
f 13/30/19 16/31/19 15/32/19
f 15/32/19 16/31/19 17/33/19
f 18/34/7 19/35/20 14/36/21
f 14/36/21 19/35/20 20/37/22
f 19/35/20 21/38/23 20/37/22
f 22/39/8 23/40/8 17/41/8
f 17/41/8 23/40/8 15/42/8
f 24/43/24 22/44/24 16/45/24
f 16/45/24 22/44/24 17/46/24
f 24/47/25 16/48/26 21/49/27
f 21/49/28 16/48/29 20/50/30
f 14/51/31 20/52/32 13/53/33
f 13/53/33 20/52/32 16/54/34
f 9/55/7 18/56/7 8/57/7
f 8/57/7 18/56/7 14/58/7
f 11/59/8 3/60/8 23/61/8
f 23/61/8 3/60/8 15/62/8
usemtl Tex_0069_0_dds
f 25/63/18 27/64/18 26/65/18
f 26/65/18 27/64/18 28/66/18
